<svg width="150" height="45" viewBox="0 0 150 45" fill="none" xmlns="http://www.w3.org/2000/svg">
<path d="M72.207 22.0178C71.3364 22.8418 70.3881 23.4481 69.362 23.8368C68.3359 24.2099 67.3021 24.3809 66.2604 24.3498C65.2344 24.3187 64.2394 24.1088 63.2755 23.7202C62.3116 23.3315 61.4488 22.7874 60.687 22.0878C59.9252 21.3726 59.3033 20.5253 58.8214 19.5459C58.3395 18.5665 58.0752 17.4782 58.0285 16.2811C57.9819 15.084 58.1529 13.9802 58.5416 12.9697C58.9458 11.9436 59.4977 11.0497 60.1973 10.2879C60.8969 9.5261 61.7131 8.91201 62.6459 8.44561C63.5942 7.97921 64.5814 7.6916 65.6075 7.58277C66.6336 7.47394 67.6752 7.56722 68.7324 7.86261C69.7895 8.14245 70.7845 8.66326 71.7173 9.42505C71.8261 9.50278 71.8805 9.6116 71.8805 9.75152C71.8961 9.8759 71.8572 9.9925 71.7639 10.1013C71.453 10.4278 71.1499 10.7543 70.8545 11.0808C70.5746 11.4072 70.2792 11.7337 69.9683 12.0602C69.7818 12.2623 69.5719 12.2779 69.3387 12.1068C68.5303 11.485 67.6596 11.1585 66.7268 11.1274C65.8096 11.0808 64.9623 11.2596 64.185 11.6638C63.4232 12.068 62.7936 12.6587 62.2961 13.4361C61.7986 14.2134 61.5731 15.1151 61.6198 16.1412C61.6664 17.1517 61.9618 18.0301 62.5059 18.7763C63.0656 19.507 63.7497 20.0434 64.5581 20.3854C65.3665 20.7119 66.2216 20.8207 67.1233 20.7119C68.0405 20.6031 68.8801 20.2066 69.6418 19.5226C69.8595 19.3516 70.0694 19.3593 70.2715 19.5459C70.5824 19.8413 70.9011 20.1367 71.2276 20.4321C71.5541 20.7274 71.8805 21.0306 72.207 21.3415C72.3003 21.4348 72.3469 21.5514 72.3469 21.6913C72.3469 21.8157 72.3003 21.9245 72.207 22.0178ZM73.7525 24.07C73.6281 24.07 73.5193 24.0233 73.426 23.93C73.3328 23.8368 73.2861 23.7202 73.2861 23.5802V8.23573C73.2861 8.11136 73.3328 8.00253 73.426 7.90925C73.5193 7.81597 73.6281 7.76933 73.7525 7.76933H82.8706C82.995 7.76933 83.1038 7.81597 83.1971 7.90925C83.2904 8.00253 83.337 8.11136 83.337 8.23573V10.731C83.337 10.8553 83.2904 10.9642 83.1971 11.0574C83.1038 11.1507 82.995 11.1974 82.8706 11.1974H77.2039V16.1412H81.005C81.1294 16.1412 81.2382 16.1878 81.3315 16.2811C81.4248 16.3744 81.4714 16.4832 81.4714 16.6076V19.1028C81.4714 19.2272 81.4248 19.336 81.3315 19.4293C81.2382 19.5226 81.1294 19.5692 81.005 19.5692H77.2039V20.6419H83.5702C83.6946 20.6419 83.8034 20.6886 83.8967 20.7819C83.99 20.8751 84.0366 20.984 84.0366 21.1083V23.5802C84.0366 23.7202 83.99 23.8368 83.8967 23.93C83.8034 24.0233 83.6946 24.07 83.5702 24.07H73.7525ZM84.9688 8.23573C84.9688 8.01808 85.0777 7.87816 85.2953 7.81597C85.513 7.73824 85.6918 7.78488 85.8317 7.95589C87.0599 9.60383 88.2803 11.244 89.4929 12.8764C90.7211 14.4932 91.9493 16.1256 93.1775 17.7736V8.23573C93.1775 8.11136 93.2241 8.00253 93.3174 7.90925C93.4107 7.81597 93.5195 7.76933 93.6439 7.76933H96.6055C96.7454 7.76933 96.862 7.81597 96.9553 7.90925C97.0486 8.00253 97.0952 8.11136 97.0952 8.23573V23.5802C97.0952 23.7046 97.0486 23.8212 96.9553 23.93C96.862 24.0233 96.7454 24.07 96.6055 24.07H93.6439C93.4884 24.07 93.364 24 93.2707 23.8601C92.5245 22.8806 91.7938 21.909 91.0787 20.9451C90.3635 19.9657 89.6328 18.9862 88.8866 18.0068V23.5802C88.8866 23.7046 88.84 23.8212 88.7467 23.93C88.6534 24.0233 88.5368 24.07 88.3969 24.07H85.4352C85.3109 24.07 85.202 24.0233 85.1088 23.93C85.0155 23.8212 84.9688 23.7046 84.9688 23.5802V8.23573ZM98.018 8.23573C98.018 8.11136 98.0646 8.00253 98.1579 7.90925C98.2512 7.81597 98.36 7.76933 98.4844 7.76933H109.678C109.803 7.76933 109.911 7.81597 110.005 7.90925C110.098 8.00253 110.145 8.11136 110.145 8.23573V10.731C110.145 10.8553 110.098 10.9642 110.005 11.0574C109.911 11.1507 109.803 11.1974 109.678 11.1974H106.04V23.5802C106.04 23.7046 105.994 23.8212 105.9 23.93C105.807 24.0233 105.698 24.07 105.574 24.07H102.612C102.472 24.07 102.356 24.0233 102.262 23.93C102.169 23.8212 102.122 23.7046 102.122 23.5802V11.1974H98.4844C98.36 11.1974 98.2512 11.1507 98.1579 11.0574C98.0646 10.9642 98.018 10.8553 98.018 10.731V8.23573ZM119.066 18.8463C119.501 19.5925 119.929 20.3465 120.349 21.1083C120.784 21.8546 121.219 22.6008 121.655 23.347C121.732 23.5181 121.725 23.6813 121.631 23.8368C121.553 23.9922 121.421 24.07 121.235 24.07H118.646C118.475 24.07 118.335 23.9845 118.227 23.8134L115.918 19.7558L114.309 20.1056V23.5802C114.309 23.7202 114.262 23.8368 114.169 23.93C114.076 24.0233 113.967 24.07 113.842 24.07H111.534C111.409 24.07 111.301 24.0233 111.207 23.93C111.114 23.8368 111.067 23.7202 111.067 23.5802V8.23573C111.067 8.11136 111.114 8.00253 111.207 7.90925C111.301 7.81597 111.409 7.76933 111.534 7.76933H116.128C116.796 7.76933 117.434 7.87816 118.04 8.09581C118.662 8.31346 119.222 8.61662 119.719 9.00529C120.232 9.39395 120.675 9.86035 121.048 10.4045C121.421 10.9331 121.693 11.5238 121.864 12.1768C122.035 12.8298 122.09 13.4827 122.028 14.1357C121.981 14.7731 121.833 15.3872 121.585 15.978C121.351 16.5687 121.017 17.1129 120.582 17.6103C120.147 18.1078 119.641 18.5198 119.066 18.8463ZM116.641 16.1412C117.123 16.0324 117.519 15.838 117.83 15.5582C118.141 15.2784 118.359 14.9519 118.483 14.5788C118.607 14.2056 118.646 13.8247 118.6 13.4361C118.569 13.0319 118.452 12.6665 118.25 12.34C118.048 12.0136 117.768 11.7415 117.41 11.5238C117.053 11.3062 116.625 11.1974 116.128 11.1974H114.309V16.6309C114.713 16.5532 115.102 16.4754 115.475 16.3977C115.863 16.3044 116.252 16.2189 116.641 16.1412ZM136.946 23.4403C136.992 23.5958 136.969 23.7435 136.876 23.8834C136.783 24.0078 136.658 24.07 136.503 24.07H133.798C133.58 24.07 133.425 23.9611 133.331 23.7435C133.16 23.1993 132.989 22.663 132.818 22.1344C132.663 21.6058 132.5 21.0772 132.329 20.5487H127.641C127.47 21.0772 127.299 21.6058 127.128 22.1344C126.973 22.663 126.809 23.1993 126.638 23.7435C126.545 23.9611 126.39 24.07 126.172 24.07H123.467C123.311 24.07 123.187 24.0078 123.094 23.8834C123.001 23.7435 122.977 23.5958 123.024 23.4403C123.848 20.8751 124.664 18.3177 125.472 15.7681C126.281 13.2184 127.097 10.661 127.921 8.09581C127.983 7.87816 128.131 7.76933 128.364 7.76933H131.606C131.839 7.76933 131.986 7.87816 132.049 8.09581C132.873 10.661 133.689 13.2184 134.497 15.7681C135.306 18.3177 136.122 20.8751 136.946 23.4403ZM131.232 17.1439L129.973 13.2029L128.737 17.1439H131.232ZM141.346 7.76933C141.47 7.76933 141.579 7.81597 141.672 7.90925C141.765 8.00253 141.812 8.11136 141.812 8.23573V20.6419H148.178C148.303 20.6419 148.412 20.6886 148.505 20.7819C148.598 20.8751 148.645 20.984 148.645 21.1083V23.5802C148.645 23.7202 148.598 23.8368 148.505 23.93C148.412 24.0233 148.303 24.07 148.178 24.07H138.361C138.236 24.07 138.128 24.0233 138.034 23.93C137.941 23.8368 137.894 23.7202 137.894 23.5802V8.23573C137.894 8.11136 137.941 8.00253 138.034 7.90925C138.128 7.81597 138.236 7.76933 138.361 7.76933H141.346Z" fill="black"/>
<path d="M72.207 41.9641C71.3364 42.788 70.3881 43.3944 69.362 43.783C68.3359 44.1561 67.3021 44.3272 66.2604 44.2961C65.2344 44.265 64.2394 44.0551 63.2755 43.6664C62.3116 43.2778 61.4488 42.7336 60.687 42.034C59.9252 41.3189 59.3033 40.4716 58.8214 39.4922C58.3395 38.5127 58.0752 37.4245 58.0285 36.2274C57.9819 35.0303 58.1529 33.9265 58.5416 32.9159C58.9458 31.8899 59.4977 30.9959 60.1973 30.2342C60.8969 29.4724 61.7131 28.8583 62.6459 28.3919C63.5942 27.9255 64.5814 27.6379 65.6075 27.529C66.6336 27.4202 67.6752 27.5135 68.7324 27.8089C69.7895 28.0887 70.7845 28.6095 71.7173 29.3713C71.8261 29.449 71.8805 29.5579 71.8805 29.6978C71.8961 29.8222 71.8572 29.9388 71.7639 30.0476C71.453 30.3741 71.1499 30.7005 70.8545 31.027C70.5746 31.3535 70.2792 31.68 69.9683 32.0065C69.7818 32.2086 69.5719 32.2241 69.3387 32.0531C68.5303 31.4312 67.6596 31.1048 66.7268 31.0737C65.8096 31.027 64.9623 31.2058 64.185 31.61C63.4232 32.0142 62.7936 32.605 62.2961 33.3823C61.7986 34.1597 61.5731 35.0614 61.6198 36.0874C61.6664 37.098 61.9618 37.9764 62.5059 38.7226C63.0656 39.4533 63.7497 39.9896 64.5581 40.3317C65.3665 40.6582 66.2216 40.767 67.1233 40.6582C68.0405 40.5493 68.8801 40.1529 69.6418 39.4688C69.8595 39.2978 70.0694 39.3056 70.2715 39.4922C70.5824 39.7875 70.9011 40.0829 71.2276 40.3783C71.5541 40.6737 71.8805 40.9769 72.207 41.2878C72.3003 41.3811 72.3469 41.4977 72.3469 41.6376C72.3469 41.762 72.3003 41.8708 72.207 41.9641ZM81.7139 28.0421C82.5379 30.6073 83.3541 33.1647 84.1625 35.7143C84.9709 38.264 85.7871 40.8214 86.6111 43.3866C86.6577 43.542 86.6344 43.6897 86.5411 43.8297C86.4478 43.954 86.3235 44.0162 86.168 44.0162H83.4629C83.2452 44.0162 83.0898 43.9074 82.9965 43.6897C82.7788 42.9901 82.5612 42.3061 82.3435 41.6376C82.1414 40.9691 81.9315 40.285 81.7139 39.5854C80.9677 39.7564 80.2292 39.9197 79.4985 40.0752C78.7834 40.2151 78.0527 40.3628 77.3064 40.5182C77.1354 41.0468 76.9644 41.5754 76.7934 42.104C76.6379 42.617 76.4747 43.1456 76.3037 43.6897C76.2104 43.9074 76.0549 44.0162 75.8373 44.0162H73.1322C72.9767 44.0162 72.8523 43.954 72.759 43.8297C72.6658 43.6897 72.6425 43.542 72.6891 43.3866C73.5131 40.8214 74.3293 38.264 75.1377 35.7143C75.9461 33.1647 76.7623 30.6073 77.5863 28.0421C77.6485 27.8244 77.7962 27.7156 78.0294 27.7156H81.2708C81.504 27.7156 81.6517 27.8244 81.7139 28.0421ZM80.6645 36.344L79.6384 33.1491L78.4957 36.787L80.6645 36.344ZM89.2849 44.0162C89.0517 44.0162 88.904 43.9074 88.8418 43.6897C88.0178 41.109 87.2016 38.5516 86.3932 36.0175C85.5848 33.4678 84.7686 30.9027 83.9446 28.3219C83.898 28.1665 83.9213 28.0265 84.0146 27.9022C84.1078 27.7778 84.2322 27.7156 84.3877 27.7156H87.4426C87.6758 27.7156 87.8235 27.8244 87.8857 28.0421L90.8939 37.4866C91.407 35.9009 91.9122 34.3307 92.4097 32.776C92.9228 31.2058 93.428 29.6278 93.9255 28.0421C93.9877 27.8244 94.1354 27.7156 94.3686 27.7156H97.4235C97.579 27.7156 97.7033 27.7778 97.7966 27.9022C97.8899 28.0265 97.9132 28.1665 97.8666 28.3219C97.0426 30.9027 96.2264 33.4678 95.418 36.0175C94.6096 38.5516 93.7934 41.109 92.9694 43.6897C92.9072 43.9074 92.7595 44.0162 92.5263 44.0162H89.2849ZM99.2814 44.0162C99.1571 44.0162 99.0482 43.9696 98.955 43.8763C98.8617 43.783 98.815 43.6664 98.815 43.5265V28.182C98.815 28.0576 98.8617 27.9488 98.955 27.8555C99.0482 27.7622 99.1571 27.7156 99.2814 27.7156H108.4C108.524 27.7156 108.633 27.7622 108.726 27.8555C108.819 27.9488 108.866 28.0576 108.866 28.182V30.6772C108.866 30.8016 108.819 30.9104 108.726 31.0037C108.633 31.097 108.524 31.1436 108.4 31.1436H102.733V36.0874H106.534C106.659 36.0874 106.767 36.1341 106.861 36.2274C106.954 36.3206 107.001 36.4295 107.001 36.5538V39.0491C107.001 39.1734 106.954 39.2823 106.861 39.3756C106.767 39.4688 106.659 39.5155 106.534 39.5155H102.733V40.5882H109.099C109.224 40.5882 109.333 40.6348 109.426 40.7281C109.519 40.8214 109.566 40.9302 109.566 41.0546V43.5265C109.566 43.6664 109.519 43.783 109.426 43.8763C109.333 43.9696 109.224 44.0162 109.099 44.0162H99.2814ZM118.497 38.7926C118.932 39.5388 119.36 40.2928 119.779 41.0546C120.215 41.8008 120.65 42.5471 121.085 43.2933C121.163 43.4643 121.155 43.6276 121.062 43.783C120.984 43.9385 120.852 44.0162 120.665 44.0162H118.077C117.906 44.0162 117.766 43.9307 117.657 43.7597L115.349 39.702L113.739 40.0518V43.5265C113.739 43.6664 113.693 43.783 113.6 43.8763C113.506 43.9696 113.397 44.0162 113.273 44.0162H110.964C110.84 44.0162 110.731 43.9696 110.638 43.8763C110.545 43.783 110.498 43.6664 110.498 43.5265V28.182C110.498 28.0576 110.545 27.9488 110.638 27.8555C110.731 27.7622 110.84 27.7156 110.964 27.7156H115.558C116.227 27.7156 116.864 27.8244 117.471 28.0421C118.092 28.2597 118.652 28.5629 119.15 28.9516C119.663 29.3402 120.106 29.8066 120.479 30.3507C120.852 30.8793 121.124 31.4701 121.295 32.1231C121.466 32.776 121.521 33.429 121.458 34.0819C121.412 34.7193 121.264 35.3334 121.015 35.9242C120.782 36.515 120.448 37.0591 120.012 37.5566C119.577 38.0541 119.072 38.4661 118.497 38.7926ZM116.071 36.0874C116.553 35.9786 116.95 35.7843 117.261 35.5044C117.572 35.2246 117.789 34.8981 117.914 34.525C118.038 34.1519 118.077 33.771 118.03 33.3823C117.999 32.9781 117.883 32.6128 117.681 32.2863C117.478 31.9598 117.199 31.6878 116.841 31.4701C116.483 31.2525 116.056 31.1436 115.558 31.1436H113.739V36.5772C114.144 36.4994 114.532 36.4217 114.905 36.344C115.294 36.2507 115.683 36.1652 116.071 36.0874ZM122.431 28.182C122.431 27.9643 122.54 27.8244 122.758 27.7622C122.975 27.6845 123.154 27.7311 123.294 27.9022C124.522 29.5501 125.743 31.1903 126.955 32.8227C128.183 34.4395 129.412 36.0719 130.64 37.7198V28.182C130.64 28.0576 130.686 27.9488 130.78 27.8555C130.873 27.7622 130.982 27.7156 131.106 27.7156H134.068C134.208 27.7156 134.324 27.7622 134.418 27.8555C134.511 27.9488 134.558 28.0576 134.558 28.182V43.5265C134.558 43.6509 134.511 43.7675 134.418 43.8763C134.324 43.9696 134.208 44.0162 134.068 44.0162H131.106C130.951 44.0162 130.826 43.9463 130.733 43.8063C129.987 42.8269 129.256 41.8552 128.541 40.8913C127.826 39.9119 127.095 38.9325 126.349 37.953V43.5265C126.349 43.6509 126.302 43.7675 126.209 43.8763C126.116 43.9696 125.999 44.0162 125.859 44.0162H122.898C122.773 44.0162 122.664 43.9696 122.571 43.8763C122.478 43.7675 122.431 43.6509 122.431 43.5265V28.182ZM144.295 28.0421C145.119 30.6073 145.935 33.1647 146.744 35.7143C147.552 38.264 148.368 40.8214 149.192 43.3866C149.239 43.542 149.216 43.6897 149.122 43.8297C149.029 43.954 148.905 44.0162 148.749 44.0162H146.044C145.827 44.0162 145.671 43.9074 145.578 43.6897C145.36 42.9901 145.143 42.3061 144.925 41.6376C144.723 40.9691 144.513 40.285 144.295 39.5854C143.549 39.7564 142.811 39.9197 142.08 40.0752C141.365 40.2151 140.634 40.3628 139.888 40.5182C139.717 41.0468 139.546 41.5754 139.375 42.104C139.219 42.617 139.056 43.1456 138.885 43.6897C138.792 43.9074 138.636 44.0162 138.419 44.0162H135.714C135.558 44.0162 135.434 43.954 135.34 43.8297C135.247 43.6897 135.224 43.542 135.27 43.3866C136.094 40.8214 136.911 38.264 137.719 35.7143C138.527 33.1647 139.344 30.6073 140.168 28.0421C140.23 27.8244 140.378 27.7156 140.611 27.7156H143.852C144.085 27.7156 144.233 27.8244 144.295 28.0421ZM143.246 36.344L142.22 33.1491L141.077 36.787L143.246 36.344Z" fill="#D11F1F"/>
<path d="M0.703946 42.0154L0.270936 41.7654L0.703949 42.0154L24.2399 1.24999C24.8172 0.250004 26.2606 0.250004 26.838 1.24999L50.3738 42.0154L50.3738 42.0154C50.9512 43.0154 50.2295 44.2654 49.0748 44.2654H42.3233C42.0907 41.1607 40.995 38.3346 39.324 35.9577L38.6675 35.0239L38.4263 36.1397L37.468 40.573L37.4679 40.573L37.4666 40.5797C37.4522 40.6508 37.4202 40.691 37.3823 40.7183C37.3386 40.7498 37.2737 40.7723 37.198 40.7723C37.1224 40.7723 37.0575 40.7498 37.0138 40.7183C36.9759 40.691 36.9438 40.6508 36.9295 40.5797L36.9269 40.5667L36.9236 40.5539L34.0517 29.4028C33.9058 28.7184 33.2836 28.4178 32.7618 28.4326C32.2217 28.4479 31.6239 28.8036 31.5505 29.5378L30.4338 37.7613L30.4324 37.7721L30.4314 37.7829C30.4242 37.8615 30.3946 37.8979 30.3647 37.921C30.3264 37.9505 30.2627 37.9742 30.1843 37.972C30.1068 37.9699 30.0407 37.9431 29.9972 37.9057C29.9611 37.8747 29.9211 37.8209 29.9108 37.7139L29.3523 27.2729L29.3518 27.2634L29.3509 27.2539C29.2871 26.5588 28.7635 26.141 28.2264 26.0626C27.6927 25.9848 27.068 26.2385 26.8602 26.9072L25.748 30.1361C25.7066 30.239 25.603 30.3089 25.4825 30.3128C25.4252 30.3147 25.3784 30.3003 25.3451 30.2785C25.3155 30.2592 25.2795 30.2237 25.2542 30.1485L25.2544 30.1485L25.2497 30.1357L23.6525 25.7816L23.6465 25.7652L23.6393 25.7493C23.1376 24.63 21.4396 24.7052 21.1757 26.0132L21.1753 26.0154L19.099 36.5444L19.095 36.5647L19.0927 36.5854C19.0832 36.6701 19.0232 36.7426 18.8972 36.7587C18.7867 36.7728 18.6832 36.732 18.6222 36.6224L17.277 31.6807L17.0911 30.9976L16.5095 31.4012L15.7109 31.9554L15.7109 31.9553L15.7026 31.9613C11.7503 34.8246 9.12656 39.2269 8.75389 44.2654H2.00299C0.848278 44.2654 0.126598 43.0154 0.703946 42.0154Z" fill="#D11F1F" stroke="#D11F1F"/>
</svg>
