<svg width="166" height="166" viewBox="0 0 166 166" fill="none" xmlns="http://www.w3.org/2000/svg">
<path d="M145.748 3.47338C150.378 -1.15779 157.897 -1.15779 162.527 3.47338C167.158 8.10456 167.158 15.6256 162.527 20.2568L99.7796 82.9815L162.49 145.743C167.12 150.374 167.12 157.895 162.49 162.527C157.86 167.158 150.341 167.158 145.711 162.527L83 99.7649L20.2523 162.49C15.6221 167.121 8.10276 167.121 3.47261 162.49C-1.15754 157.858 -1.15754 150.337 3.47261 145.706L66.2203 82.9815L3.50965 20.2197C-1.1205 15.5885 -1.1205 8.10456 3.50965 3.47338C8.1398 -1.15779 15.6592 -1.15779 20.2893 3.47338L83 66.1981L145.748 3.47338Z" fill="#EEEEEE"/>
</svg>
